<?xml version="1.0" encoding="utf-8"?>
<svg viewBox="0 0 375 374.999991" xmlns="http://www.w3.org/2000/svg">
  <defs>
    <clipPath id="id1">
      <path d="M 217 118.015625 L 274 118.015625 L 274 163 L 217 163 Z M 217 118.015625 " clip-rule="nonzero"/>
    </clipPath>
    <clipPath id="id2">
      <path d="M 201 195.273438 L 290 195.273438 L 290 266 L 201 266 Z M 201 195.273438 " clip-rule="nonzero"/>
    </clipPath>
    <clipPath id="id3">
      <path d="M 217 208.339844 L 274 208.339844 L 274 253 L 217 253 Z M 217 208.339844 " clip-rule="nonzero"/>
    </clipPath>
    <clipPath id="id4">
      <path d="M 90 195.273438 L 179 195.273438 L 179 266 L 90 266 Z M 90 195.273438 " clip-rule="nonzero"/>
    </clipPath>
    <clipPath id="id5">
      <path d="M 105 208.339844 L 162 208.339844 L 162 253 L 105 253 Z M 105 208.339844 " clip-rule="nonzero"/>
    </clipPath>
    <clipPath id="id6">
      <path d="M 105 218.40625 L 162 218.40625 L 162 263 L 105 263 Z M 105 218.40625 " clip-rule="nonzero"/>
    </clipPath>
    <clipPath id="id7">
      <path d="M 105 224.40625 L 162 224.40625 L 162 269 L 105 269 Z M 105 224.40625 " clip-rule="nonzero"/>
    </clipPath>
    <clipPath id="id8">
      <path d="M 105 118.015625 L 162 118.015625 L 162 163 L 105 163 Z M 105 118.015625 " clip-rule="nonzero"/>
    </clipPath>
    <clipPath id="id9">
      <path d="M 93 118.015625 L 150 118.015625 L 150 163 L 93 163 Z M 93 118.015625 " clip-rule="nonzero"/>
    </clipPath>
    <clipPath id="id10">
      <path d="M 85 118.015625 L 142 118.015625 L 142 163 L 85 163 Z M 85 118.015625 " clip-rule="nonzero"/>
    </clipPath>
  </defs>
  <rect x="-37.5" width="450" fill="#ffffff" y="-37.499999" height="449.999989" fill-opacity="1"/>
  <rect x="-37.5" width="450" fill="#f3f8f0" y="-37.499999" height="449.999989" fill-opacity="1"/>
  <rect x="-37.5" width="450" fill="#ffffff" y="-37.499999" height="449.999989" fill-opacity="1"/>
  <rect x="-37.5" width="450" y="-37.499999" height="449.999989" fill-opacity="1" style="fill: rgb(255, 255, 255);"/>
  <path fill="#84b462" d="M 206.824219 108.960938 C 198.253906 114.066406 202.34375 152.683594 204.609375 165.054688 C 205.664062 170.824219 212.128906 173.148438 223.09375 173.804688 C 230.148438 174.226562 268.855469 176.953125 281.53125 171.109375 C 284.648438 169.675781 286.851562 166.207031 287.433594 163.75 C 291.238281 147.675781 289.519531 136.050781 289 118.113281 C 288.820312 111.976562 284.390625 106.875 269.484375 106.480469 C 259.367188 106.210938 249.375 105.378906 235.386719 105.167969 C 221.503906 104.953125 211.59375 106.117188 206.824219 108.960938 Z M 206.824219 108.960938 " fill-opacity="1" fill-rule="evenodd"/>
  <g clip-path="url(#id1)">
    <path d="M 220.664062 120.566406 C 215.203125 123.8125 217.808594 148.347656 219.25 156.207031 C 219.925781 159.875 224.042969 161.351562 231.027344 161.769531 C 235.523438 162.039062 260.183594 163.769531 268.257812 160.054688 C 270.246094 159.144531 271.648438 156.9375 272.019531 155.378906 C 274.441406 145.164062 273.347656 137.777344 273.015625 126.378906 C 272.902344 122.480469 270.082031 119.238281 260.582031 118.988281 C 254.136719 118.816406 247.773438 118.289062 238.859375 118.152344 C 230.015625 118.019531 223.703125 118.757812 220.664062 120.566406 Z M 220.664062 120.566406 " fill-opacity="1" fill-rule="evenodd" style="fill: rgb(255, 255, 255);"/>
  </g>
  <g clip-path="url(#id2)">
    <path fill="#333432" d="M 206.824219 199.28125 C 198.253906 204.390625 202.34375 243.003906 204.609375 255.378906 C 205.664062 261.144531 212.128906 263.472656 223.09375 264.128906 C 230.148438 264.550781 268.855469 267.273438 281.53125 261.433594 C 284.648438 259.996094 286.851562 256.527344 287.433594 254.074219 C 291.238281 238 289.519531 226.375 289 208.4375 C 288.820312 202.300781 284.390625 197.199219 269.484375 196.800781 C 259.367188 196.53125 249.375 195.703125 235.386719 195.488281 C 221.503906 195.277344 211.59375 196.4375 206.824219 199.28125 Z M 206.824219 199.28125 " fill-opacity="1" fill-rule="evenodd"/>
  </g>
  <g clip-path="url(#id3)">
    <path d="M 220.664062 210.886719 C 215.203125 214.132812 217.808594 238.667969 219.25 246.53125 C 219.925781 250.195312 224.042969 251.675781 231.027344 252.09375 C 235.523438 252.359375 260.183594 254.089844 268.257812 250.378906 C 270.246094 249.464844 271.648438 247.261719 272.019531 245.703125 C 274.441406 235.488281 273.347656 228.101562 273.015625 216.703125 C 272.902344 212.804688 270.082031 209.5625 260.582031 209.308594 C 254.136719 209.140625 247.773438 208.613281 238.859375 208.476562 C 230.015625 208.339844 223.703125 209.082031 220.664062 210.886719 Z M 220.664062 210.886719 " fill-opacity="1" fill-rule="evenodd" style="fill: rgb(255, 255, 255);"/>
  </g>
  <g clip-path="url(#id4)">
    <path fill="#333432" d="M 95.210938 199.28125 C 86.644531 204.390625 90.730469 243.003906 92.996094 255.378906 C 94.050781 261.144531 100.519531 263.472656 111.480469 264.128906 C 118.535156 264.550781 157.242188 267.273438 169.917969 261.433594 C 173.035156 259.996094 175.238281 256.527344 175.820312 254.074219 C 179.625 238 177.90625 226.375 177.386719 208.4375 C 177.207031 202.300781 172.777344 197.199219 157.871094 196.800781 C 147.753906 196.53125 137.761719 195.703125 123.773438 195.488281 C 109.894531 195.277344 99.980469 196.4375 95.210938 199.28125 Z M 95.210938 199.28125 " fill-opacity="1" fill-rule="evenodd"/>
  </g>
  <g clip-path="url(#id5)">
    <path d="M 109.050781 210.886719 C 103.589844 214.132812 106.195312 238.667969 107.640625 246.53125 C 108.3125 250.195312 112.429688 251.675781 119.414062 252.09375 C 123.910156 252.359375 148.570312 254.089844 156.644531 250.378906 C 158.632812 249.464844 160.035156 247.261719 160.40625 245.703125 C 162.828125 235.488281 161.734375 228.101562 161.402344 216.703125 C 161.289062 212.804688 158.46875 209.5625 148.972656 209.308594 C 142.527344 209.140625 136.160156 208.613281 127.246094 208.476562 C 118.402344 208.339844 112.089844 209.082031 109.050781 210.886719 Z M 109.050781 210.886719 " fill-opacity="1" fill-rule="evenodd" style="fill: rgb(255, 255, 255);"/>
  </g>
  <g clip-path="url(#id6)">
    <path d="M 109.050781 220.953125 C 103.589844 224.199219 106.195312 248.738281 107.640625 256.597656 C 108.3125 260.261719 112.429688 261.742188 119.414062 262.160156 C 123.910156 262.425781 148.570312 264.15625 156.644531 260.445312 C 158.632812 259.53125 160.035156 257.328125 160.40625 255.769531 C 162.828125 245.554688 161.734375 238.167969 161.402344 226.769531 C 161.289062 222.871094 158.46875 219.628906 148.972656 219.378906 C 142.527344 219.207031 136.160156 218.679688 127.246094 218.542969 C 118.402344 218.410156 112.089844 219.148438 109.050781 220.953125 Z M 109.050781 220.953125 " fill-opacity="1" fill-rule="evenodd" style="fill: rgb(255, 255, 255);"/>
  </g>
  <g clip-path="url(#id7)">
    <path d="M 109.050781 226.953125 C 103.589844 230.199219 106.195312 254.738281 107.640625 262.597656 C 108.3125 266.261719 112.429688 267.742188 119.414062 268.160156 C 123.910156 268.425781 148.570312 270.15625 156.644531 266.445312 C 158.632812 265.53125 160.035156 263.328125 160.40625 261.769531 C 162.828125 251.554688 161.734375 244.167969 161.402344 232.769531 C 161.289062 228.871094 158.46875 225.628906 148.972656 225.378906 C 142.527344 225.207031 136.160156 224.679688 127.246094 224.542969 C 118.402344 224.410156 112.089844 225.148438 109.050781 226.953125 Z M 109.050781 226.953125 " fill-opacity="1" fill-rule="evenodd" style="fill: rgb(255, 255, 255);"/>
  </g>
  <path fill="#333432" d="M 95.210938 108.960938 C 86.644531 114.066406 90.730469 152.683594 92.996094 165.054688 C 94.050781 170.824219 100.519531 173.148438 111.480469 173.804688 C 118.535156 174.226562 157.242188 176.953125 169.917969 171.109375 C 173.035156 169.675781 175.238281 166.207031 175.820312 163.75 C 179.625 147.675781 177.90625 136.050781 177.386719 118.113281 C 177.207031 111.976562 172.777344 106.875 157.871094 106.480469 C 147.753906 106.210938 137.761719 105.378906 123.773438 105.167969 C 109.894531 104.953125 99.980469 106.117188 95.210938 108.960938 Z M 95.210938 108.960938 " fill-opacity="1" fill-rule="evenodd"/>
  <g clip-path="url(#id8)">
    <path d="M 109.050781 120.566406 C 103.589844 123.8125 106.195312 148.347656 107.640625 156.207031 C 108.3125 159.875 112.429688 161.351562 119.414062 161.769531 C 123.910156 162.039062 148.570312 163.769531 156.644531 160.054688 C 158.632812 159.144531 160.035156 156.9375 160.40625 155.378906 C 162.828125 145.164062 161.734375 137.777344 161.402344 126.378906 C 161.289062 122.480469 158.46875 119.238281 148.972656 118.988281 C 142.527344 118.816406 136.160156 118.289062 127.246094 118.152344 C 118.402344 118.019531 112.089844 118.757812 109.050781 120.566406 Z M 109.050781 120.566406 " fill-opacity="1" fill-rule="evenodd" style="fill: rgb(255, 255, 255);"/>
  </g>
  <g clip-path="url(#id9)">
    <path d="M 97.023438 120.566406 C 91.566406 123.8125 94.167969 148.347656 95.613281 156.207031 C 96.285156 159.875 100.40625 161.351562 107.390625 161.769531 C 111.882812 162.039062 136.546875 163.769531 144.621094 160.054688 C 146.605469 159.144531 148.007812 156.9375 148.378906 155.378906 C 150.804688 145.164062 149.710938 137.777344 149.378906 126.378906 C 149.265625 122.480469 146.441406 119.238281 136.945312 118.988281 C 130.5 118.816406 124.132812 118.289062 115.222656 118.152344 C 106.378906 118.019531 100.0625 118.757812 97.023438 120.566406 Z M 97.023438 120.566406 " fill-opacity="1" fill-rule="evenodd" style="fill: rgb(255, 255, 255);"/>
  </g>
  <g clip-path="url(#id10)">
    <path d="M 89.097656 120.566406 C 83.640625 123.8125 86.242188 148.347656 87.6875 156.207031 C 88.359375 159.875 92.480469 161.351562 99.460938 161.769531 C 103.957031 162.039062 128.617188 163.769531 136.695312 160.054688 C 138.679688 159.144531 140.082031 156.9375 140.453125 155.378906 C 142.878906 145.164062 141.78125 137.777344 141.453125 126.378906 C 141.339844 122.480469 138.515625 119.238281 129.019531 118.988281 C 122.574219 118.816406 116.207031 118.289062 107.292969 118.152344 C 98.453125 118.019531 92.136719 118.757812 89.097656 120.566406 Z M 89.097656 120.566406 " fill-opacity="1" fill-rule="evenodd" style="fill: rgb(255, 255, 255);"/>
  </g>
</svg>